<?xml version="1.0" encoding="UTF-8" standalone="no"?>
<!-- Created with Inkscape (http://www.inkscape.org/) -->

<svg
   width="88.765053mm"
   height="98.574242mm"
   viewBox="0 0 88.765053 98.574242"
   version="1.1"
   id="svg5"
   inkscape:version="1.1 (ce6663b3b7, 2021-05-25)"
   sodipodi:docname="logo.svg"
   xmlns:inkscape="http://www.inkscape.org/namespaces/inkscape"
   xmlns:sodipodi="http://sodipodi.sourceforge.net/DTD/sodipodi-0.dtd"
   xmlns="http://www.w3.org/2000/svg"
   xmlns:svg="http://www.w3.org/2000/svg">
  <sodipodi:namedview
     id="namedview7"
     pagecolor="#ffffff"
     bordercolor="#666666"
     borderopacity="1.0"
     inkscape:pageshadow="2"
     inkscape:pageopacity="0.0"
     inkscape:pagecheckerboard="0"
     inkscape:document-units="mm"
     showgrid="false"
     inkscape:zoom="0.75187991"
     inkscape:cx="263.33993"
     inkscape:cy="405.64989"
     inkscape:window-width="1551"
     inkscape:window-height="1053"
     inkscape:window-x="3562"
     inkscape:window-y="399"
     inkscape:window-maximized="0"
     inkscape:current-layer="layer2" />
  <defs
     id="defs2" />
  <g
     inkscape:label="Layer 1"
     inkscape:groupmode="layer"
     id="layer1"
     transform="translate(-35.277691,-41.028856)">
    <rect
       style="fill:#ffff00;stroke:none;stroke-width:0.250972;stroke-dasharray:1.50583, 1.50583"
       id="rect867"
       width="20"
       height="70"
       x="110.44228"
       y="-16.38784"
       transform="rotate(30)" />
    <path
       sodipodi:type="star"
       style="fill:#ffff00;stroke:none;stroke-width:1.00157;stroke-dasharray:6.00945, 6.00945"
       id="path1247"
       inkscape:flatsided="true"
       sodipodi:sides="3"
       sodipodi:cx="275.70999"
       sodipodi:cy="451.49847"
       sodipodi:r1="49.923286"
       sodipodi:r2="24.961643"
       sodipodi:arg1="0.52359878"
       sodipodi:arg2="1.5707963"
       inkscape:rounded="0"
       inkscape:randomized="0"
       d="m 318.94483,476.46012 -86.46967,0 43.23483,-74.88493 z"
       transform="matrix(0.20030733,0.11564749,0.13353821,-0.23129497,-41.352361,184.96829)"
       inkscape:transform-center-y="0.38674661"
       inkscape:transform-center-x="-2.6634618" />
    <rect
       style="fill:#ffff00;stroke:none;stroke-width:0.240661;stroke-dasharray:1.44397, 1.44397"
       id="rect1438"
       width="2.5"
       height="5"
       x="119.19228"
       y="68.61216"
       transform="rotate(30)" />
    <path
       style="fill:#ffff00;stroke:none;stroke-width:0.264999;stroke-dasharray:1.59, 1.59"
       id="path1596"
       d="m 39.32469,130.64433 c 0.07838,-0.0354 0.153953,-0.0778 0.235132,-0.10612 0.127551,-0.0446 0.914204,-0.25245 0.95304,-0.26339 0.64426,-0.18159 1.159711,-0.35736 1.831813,-0.48448 0.4009,-0.0758 0.808064,-0.11363 1.212096,-0.17045 1.433698,-0.18786 2.875984,-0.0617 4.305943,0.0854 0.242766,0.025 0.483913,0.071 0.727813,0.0795 0.244478,0.008 0.488868,-0.0193 0.733301,-0.0289 1.169808,-0.1224 2.344341,-0.23051 3.52031,-0.2729 0.65305,-0.0236 1.24224,-0.0101 1.894795,-0.003 1.383385,0.11562 2.776723,-0.008 4.159536,0.10935 0.222277,0.0189 0.442987,0.053 0.66448,0.0795 0.670539,0.11947 1.335283,0.26072 2.011172,0.34625 0.294756,0.0482 0.593259,0.0351 0.890318,0.0541 0.03868,0.003 0.07731,0.0117 0.116046,0.009 0.524171,-0.0319 -0.243136,-0.0256 0.313348,-0.035 0.169334,-0.003 0.330687,0.003 0.499759,-0.016 0.315447,-0.0681 0.637894,-0.0433 0.957236,-0.0605 0.363892,0.0367 0.697587,-0.0597 1.028978,-0.19809 0.04821,-0.0189 0.09642,-0.0379 0.144629,-0.0569 0,0 -0.350118,-9.75209 -0.350118,-9.75209 v 0 c -0.05309,0.019 -0.106172,0.0381 -0.159258,0.0571 -0.227759,0.0821 -0.44015,0.20028 -0.688777,0.18818 -0.341407,-5.3e-4 -0.680153,0.0552 -1.022138,0.049 -0.138134,0.01 -0.271388,0.0343 -0.410313,0.0319 -0.555829,-0.009 0.210198,-0.003 -0.313306,-0.035 -0.03872,-0.002 -0.07734,0.006 -0.11601,0.009 -0.29686,0.0189 -0.595138,0.006 -0.889743,0.0535 -0.676143,0.0847 -1.341268,0.22472 -2.011958,0.34419 -0.221633,0.0266 -0.442494,0.0607 -0.664903,0.0797 -1.385366,0.11861 -2.782364,-0.002 -4.167256,0.13648 -0.611685,0.018 -1.290699,0.0429 -1.902225,0.0404 -1.180489,-0.005 -2.361287,-0.0526 -3.541522,-0.0743 -0.240726,0.0104 -0.482552,0.006 -0.72218,0.0314 -0.245872,0.0259 -0.487728,0.0813 -0.731634,0.12174 -1.4273,0.2365 -2.862143,0.4896 -4.315962,0.43245 -1.469631,-0.0644 -0.902314,0.003 -2.280767,-0.21342 -0.261252,-0.041 -0.521684,-0.087 -0.782574,-0.13021 -0.386339,-0.064 -0.779267,-0.10869 -1.129101,-0.29989 0,0 0,9.86219 0,9.86219 z" />
  </g>
  <g
     inkscape:groupmode="layer"
     id="layer2"
     inkscape:label="Layer 2"
     transform="translate(-35.277691,-41.028856)">
    <circle
       style="fill:none;stroke:#ff0000;stroke-width:8;stroke-miterlimit:4;stroke-dasharray:none;stroke-dashoffset:0;stroke-opacity:1"
       id="path1731"
       cx="79.660217"
       cy="95.220573"
       r="40.382526" />
    <rect
       style="fill:#ff0000;stroke:none;stroke-width:7.99999;stroke-miterlimit:4;stroke-dasharray:none;stroke-dashoffset:0;stroke-opacity:1"
       id="rect1967"
       width="78.560204"
       height="8.7655201"
       x="-18.522091"
       y="117.42618"
       transform="rotate(-30)" />
  </g>
</svg>
